<svg width="38" height="40" viewBox="0 0 38 40" fill="none" xmlns="http://www.w3.org/2000/svg">
<mask id="path-1-inside-1" fill="white">
<path fill-rule="evenodd" clip-rule="evenodd" d="M1.5 6.25C1.5 3.62665 3.62665 1.5 6.25 1.5H6.74973C6.27896 2.12675 6 2.9058 6 3.75V17.75C6 18.9926 4.99264 20 3.75 20C2.50736 20 1.5 18.9926 1.5 17.75V6.25ZM17 1.5H12.7503C13.221 2.12675 13.5 2.9058 13.5 3.75V29.25C13.5 30.2086 13.1403 31.0831 12.5486 31.7461L17.1344 31.6475C19.9112 31.5878 22.2329 29.7237 22.9896 27.1895C22.749 27.2293 22.5019 27.25 22.25 27.25C19.7647 27.25 17.75 25.2353 17.75 22.75V10.75C17.75 8.26472 19.7647 6.25 22.25 6.25C22.5362 6.25 22.8161 6.27672 23.0875 6.32779C22.4437 3.56123 19.9625 1.5 17 1.5ZM24.7125 6.98296C24.3274 3.06282 21.0214 0 17 0H9.75H6.25C2.79822 0 0 2.79822 0 6.25V17.75C0 19.8211 1.67893 21.5 3.75 21.5C5.82107 21.5 7.5 19.8211 7.5 17.75V3.75C7.5 2.50736 8.50736 1.5 9.75 1.5C10.9926 1.5 12 2.50736 12 3.75V29.25C12 30.4926 10.9926 31.5 9.75 31.5C8.50736 31.5 7.5 30.4926 7.5 29.25V22.75H6V29.25C6 30.2367 6.38112 31.1345 7.00417 31.804C3.91101 31.4365 1.5 28.8038 1.5 25.5978V22.75H0V25.5978C0 29.9433 3.5722 33.4395 7.91663 33.3461L17.1666 33.1471C20.9909 33.0649 24.1191 30.2227 24.6654 26.5475C25.9187 25.7486 26.75 24.3464 26.75 22.75V10.75C26.75 9.17369 25.9395 7.78668 24.7125 6.98296Z"/>
</mask>
<path fill-rule="evenodd" clip-rule="evenodd" d="M1.5 6.25C1.5 3.62665 3.62665 1.5 6.25 1.5H6.74973C6.27896 2.12675 6 2.9058 6 3.75V17.75C6 18.9926 4.99264 20 3.75 20C2.50736 20 1.5 18.9926 1.5 17.75V6.25ZM17 1.5H12.7503C13.221 2.12675 13.5 2.9058 13.5 3.75V29.25C13.5 30.2086 13.1403 31.0831 12.5486 31.7461L17.1344 31.6475C19.9112 31.5878 22.2329 29.7237 22.9896 27.1895C22.749 27.2293 22.5019 27.25 22.25 27.25C19.7647 27.25 17.75 25.2353 17.75 22.75V10.75C17.75 8.26472 19.7647 6.25 22.25 6.25C22.5362 6.25 22.8161 6.27672 23.0875 6.32779C22.4437 3.56123 19.9625 1.5 17 1.5ZM24.7125 6.98296C24.3274 3.06282 21.0214 0 17 0H9.75H6.25C2.79822 0 0 2.79822 0 6.25V17.75C0 19.8211 1.67893 21.5 3.75 21.5C5.82107 21.5 7.5 19.8211 7.5 17.75V3.75C7.5 2.50736 8.50736 1.5 9.75 1.5C10.9926 1.5 12 2.50736 12 3.75V29.25C12 30.4926 10.9926 31.5 9.75 31.5C8.50736 31.5 7.5 30.4926 7.5 29.25V22.75H6V29.25C6 30.2367 6.38112 31.1345 7.00417 31.804C3.91101 31.4365 1.5 28.8038 1.5 25.5978V22.75H0V25.5978C0 29.9433 3.5722 33.4395 7.91663 33.3461L17.1666 33.1471C20.9909 33.0649 24.1191 30.2227 24.6654 26.5475C25.9187 25.7486 26.75 24.3464 26.75 22.75V10.75C26.75 9.17369 25.9395 7.78668 24.7125 6.98296Z" fill="white"/>
<path d="M6.74973 1.5L7.94907 2.40087L9.75244 0H6.74973V1.5ZM12.7503 1.5V0H9.74756L11.5509 2.40087L12.7503 1.5ZM12.5486 31.7461L11.4295 30.7473L9.13342 33.3199L12.5809 33.2457L12.5486 31.7461ZM17.1344 31.6475L17.1666 33.1471H17.1666L17.1344 31.6475ZM22.9896 27.1895L24.4269 27.6187L25.1139 25.3179L22.7449 25.7096L22.9896 27.1895ZM23.0875 6.32779L22.81 7.8019L25.0696 8.22718L24.5484 5.98781L23.0875 6.32779ZM24.7125 6.98296L23.2197 7.12963L23.2899 7.84427L23.8906 8.23773L24.7125 6.98296ZM7.5 22.75H9V21.25H7.5V22.75ZM6 22.75V21.25H4.5V22.75H6ZM7.00417 31.804L6.8272 33.2935L10.8883 33.776L8.10227 30.7822L7.00417 31.804ZM1.5 22.75H3V21.25H1.5V22.75ZM0 22.75V21.25H-1.5V22.75H0ZM7.91663 33.3461L7.94888 34.8457H7.94888L7.91663 33.3461ZM17.1666 33.1471L17.1989 34.6468L17.1666 33.1471ZM24.6654 26.5475L23.8592 25.2826L23.2823 25.6503L23.1817 26.3269L24.6654 26.5475ZM6.25 0C2.79822 0 0 2.79822 0 6.25H3C3 4.45507 4.45507 3 6.25 3V0ZM6.74973 0H6.25V3H6.74973V0ZM7.5 3.75C7.5 3.24175 7.66672 2.77677 7.94907 2.40087L5.55038 0.599133C4.8912 1.47672 4.5 2.56984 4.5 3.75H7.5ZM7.5 17.75V3.75H4.5V17.75H7.5ZM3.75 21.5C5.82107 21.5 7.5 19.8211 7.5 17.75H4.5C4.5 18.1642 4.16421 18.5 3.75 18.5V21.5ZM0 17.75C0 19.8211 1.67893 21.5 3.75 21.5V18.5C3.33579 18.5 3 18.1642 3 17.75H0ZM0 6.25V17.75H3V6.25H0ZM12.7503 3H17V0H12.7503V3ZM15 3.75C15 2.56984 14.6088 1.47672 13.9496 0.599133L11.5509 2.40087C11.8333 2.77677 12 3.24175 12 3.75H15ZM15 29.25V3.75H12V29.25H15ZM13.6677 32.7449C14.4953 31.8177 15 30.591 15 29.25H12C12 29.8261 11.7854 30.3485 11.4295 30.7473L13.6677 32.7449ZM17.1021 30.1478L12.5164 30.2464L12.5809 33.2457L17.1666 33.1471L17.1021 30.1478ZM21.5523 26.7604C20.9769 28.6874 19.2104 30.1025 17.1021 30.1478L17.1666 33.1471C20.6119 33.073 23.489 30.76 24.4269 27.6187L21.5523 26.7604ZM22.7449 25.7096C22.5848 25.7361 22.4196 25.75 22.25 25.75V28.75C22.5842 28.75 22.9131 28.7225 23.2343 28.6694L22.7449 25.7096ZM22.25 25.75C20.5931 25.75 19.25 24.4069 19.25 22.75H16.25C16.25 26.0637 18.9363 28.75 22.25 28.75V25.75ZM19.25 22.75V10.75H16.25V22.75H19.25ZM19.25 10.75C19.25 9.09315 20.5931 7.75 22.25 7.75V4.75C18.9363 4.75 16.25 7.43629 16.25 10.75H19.25ZM22.25 7.75C22.4426 7.75 22.6297 7.76796 22.81 7.8019L23.3649 4.85367C23.0026 4.78547 22.6297 4.75 22.25 4.75V7.75ZM17 3C19.2496 3 21.1372 4.56531 21.6265 6.66777L24.5484 5.98781C23.7501 2.55715 20.6755 0 17 0V3ZM26.2053 6.8363C25.7455 2.15582 21.8006 -1.5 17 -1.5V1.5C20.2421 1.5 22.9093 3.96983 23.2197 7.12963L26.2053 6.8363ZM17 -1.5H9.75V1.5H17V-1.5ZM9.75 -1.5H6.25V1.5H9.75V-1.5ZM6.25 -1.5C1.96979 -1.5 -1.5 1.96979 -1.5 6.25H1.5C1.5 3.62665 3.62665 1.5 6.25 1.5V-1.5ZM-1.5 6.25V17.75H1.5V6.25H-1.5ZM-1.5 17.75C-1.5 20.6495 0.850505 23 3.75 23V20C2.50736 20 1.5 18.9926 1.5 17.75H-1.5ZM3.75 23C6.6495 23 9 20.6495 9 17.75H6C6 18.9926 4.99264 20 3.75 20V23ZM9 17.75V3.75H6V17.75H9ZM9 3.75C9 3.33579 9.33579 3 9.75 3V0C7.67893 0 6 1.67893 6 3.75H9ZM9.75 3C10.1642 3 10.5 3.33579 10.5 3.75H13.5C13.5 1.67893 11.8211 0 9.75 0V3ZM10.5 3.75V29.25H13.5V3.75H10.5ZM10.5 29.25C10.5 29.6642 10.1642 30 9.75 30V33C11.8211 33 13.5 31.3211 13.5 29.25H10.5ZM9.75 30C9.33579 30 9 29.6642 9 29.25H6C6 31.3211 7.67893 33 9.75 33V30ZM9 29.25V22.75H6V29.25H9ZM7.5 21.25H6V24.25H7.5V21.25ZM4.5 22.75V29.25H7.5V22.75H4.5ZM4.5 29.25C4.5 30.6307 5.03494 31.8897 5.90607 32.8259L8.10227 30.7822C7.72729 30.3792 7.5 29.8428 7.5 29.25H4.5ZM7.18114 30.3145C4.83187 30.0354 3 28.033 3 25.5978H0C0 29.5745 2.99015 32.8377 6.8272 33.2935L7.18114 30.3145ZM3 25.5978V22.75H0V25.5978H3ZM1.5 21.25H0V24.25H1.5V21.25ZM-1.5 22.75V25.5978H1.5V22.75H-1.5ZM-1.5 25.5978C-1.5 30.7843 2.7636 34.9572 7.94888 34.8457L7.88438 31.8464C4.38081 31.9217 1.5 29.1022 1.5 25.5978H-1.5ZM7.94888 34.8457L17.1989 34.6468L17.1344 31.6475L7.88438 31.8464L7.94888 34.8457ZM17.1989 34.6468C21.7645 34.5486 25.4969 31.1558 26.1491 26.768L23.1817 26.3269C22.7413 29.2896 20.2172 31.5812 17.1344 31.6475L17.1989 34.6468ZM25.25 22.75C25.25 23.8127 24.6986 24.7475 23.8592 25.2826L25.4716 27.8124C27.1389 26.7497 28.25 24.8801 28.25 22.75H25.25ZM25.25 10.75V22.75H28.25V10.75H25.25ZM23.8906 8.23773C24.7124 8.77605 25.25 9.70063 25.25 10.75H28.25C28.25 8.64674 27.1666 6.7973 25.5344 5.72819L23.8906 8.23773Z" fill="#2EADE2" mask="url(#path-1-inside-1)"/>
<path d="M31 30.5L32.9773 28.5227C34.1096 27.3904 34.153 25.5683 33.0758 24.3834L31.9801 23.1781C30.8805 21.9685 29.0149 21.8619 27.7847 22.9384L26 24.5" stroke="white" stroke-width="8" stroke-linecap="round" stroke-linejoin="round"/>
<path d="M22.9971 27.6908L21.0967 29.7421C20.0084 30.9169 20.0346 32.7393 21.1562 33.8822L22.2971 35.0448C23.4421 36.2115 25.3103 36.2469 26.4986 35.1243L28.2224 33.4957" stroke="white" stroke-width="8" stroke-linecap="round" stroke-linejoin="round"/>
<line x1="30" y1="31.1569" x2="29.6569" y2="31.5" stroke="white" stroke-width="8" stroke-linecap="round" stroke-linejoin="round"/>
<path d="M31 30.5L32.9773 28.5227C34.1096 27.3904 34.153 25.5683 33.0758 24.3834L31.9801 23.1781C30.8805 21.9685 29.0149 21.8619 27.7847 22.9384L26 24.5" stroke="#BE7775" stroke-width="2" stroke-linecap="round" stroke-linejoin="round"/>
<path d="M22.9971 27.6908L21.0967 29.7421C20.0084 30.9169 20.0346 32.7393 21.1562 33.8822L22.2971 35.0448C23.4421 36.2115 25.3103 36.2469 26.4986 35.1243L28.2224 33.4957" stroke="#BE7775" stroke-width="2" stroke-linecap="round" stroke-linejoin="round"/>
<line x1="30" y1="26.9142" x2="25.4142" y2="31.5" stroke="#BE7775" stroke-width="2" stroke-linecap="round" stroke-linejoin="round"/>
</svg>
