<svg width="47" height="48" viewBox="0 0 47 48" fill="none" xmlns="http://www.w3.org/2000/svg">
<path fill-rule="evenodd" clip-rule="evenodd" d="M32.4991 17.1829L27.194 11.6352C25.0193 9.36102 25.0999 5.75447 27.3741 3.57974C29.6482 1.40501 33.2548 1.48563 35.4295 3.75981L40.7346 9.30751C42.9094 11.5817 42.8287 15.1882 40.5546 17.363C38.2804 19.5377 34.6738 19.4571 32.4991 17.1829ZM42.7794 17.8596C45.0001 14.9014 44.8205 10.6864 42.1801 7.92526L36.875 2.37755C33.9369 -0.694932 29.0643 -0.803853 25.9918 2.13428C22.9193 5.0724 22.8104 9.94497 25.7485 13.0175L31.0536 18.5652C33.8197 21.4577 38.3001 21.7236 41.3791 19.2934L44.4255 22.6783C44.7937 23.0873 44.7621 23.717 44.3549 24.0872L41.7385 26.4657C41.3435 26.8248 40.7361 26.8104 40.3587 26.4329L39.6214 25.6956C38.4498 24.524 36.5503 24.524 35.3787 25.6956L31.2929 29.7814C30.9024 30.1719 30.9024 30.8051 31.2929 31.1956C31.6835 31.5861 32.3166 31.5861 32.7072 31.1956L36.7929 27.1098C37.1835 26.7193 37.8166 26.7193 38.2072 27.1098L38.9445 27.8471C40.0768 28.9795 41.8989 29.0228 43.0838 27.9456L45.7002 25.5671C46.9219 24.4565 47.0165 22.5675 45.9121 21.3403L42.7794 17.8596Z" fill="#BE7775"/>
<path fill-rule="evenodd" clip-rule="evenodd" d="M25.3249 38.1884L24.2382 35.8174L21.041 39.5065L18 40.4422L15.1909 39.5779L12.2504 35.9023L11.1767 38.3427L9.25217 37.7506L10.7523 34.3413C11.2061 33.3099 12.5926 33.1285 13.2965 34.0084L18.0307 39.9261L23.2356 33.9206C23.9502 33.096 25.2781 33.2861 25.7327 34.278L27.2531 37.5951L25.3249 38.1884ZM10.3657 40.1858L8.44124 39.5936L5.58469 46.0858C5.36227 46.5913 5.59175 47.1814 6.09727 47.4038C6.60278 47.6262 7.1929 47.3967 7.41532 46.8912L10.3657 40.1858ZM26.1655 40.0223L28.0936 39.429L30.9091 45.5718C31.1392 46.0739 30.9187 46.6674 30.4167 46.8976C29.9146 47.1277 29.3211 46.9072 29.0909 46.4051L26.1655 40.0223Z" fill="#1889B9"/>
<path d="M1 45.4885L4.62115 38.2462C4.83977 37.809 5.34244 37.5939 5.80967 37.7376L17.7059 41.398C17.8975 41.457 18.1025 41.457 18.2941 41.398L30.1903 37.7376C30.6576 37.5939 31.1602 37.809 31.3788 38.2462L35 45.4885" stroke="#2EADE2" stroke-width="2" stroke-linecap="round" stroke-linejoin="round"/>
<path d="M18 40.4885V31.4885M18 31.4885L11.5 27.4885V19.9885L18 15.9885L24.5 19.9885V27.4885L18 31.4885Z" stroke="#2EADE2" stroke-width="2" stroke-linecap="round" stroke-linejoin="round"/>
</svg>
