<svg width="52" height="42" viewBox="0 0 52 42" fill="none" xmlns="http://www.w3.org/2000/svg">
<path fill-rule="evenodd" clip-rule="evenodd" d="M7 1C7 0.447723 7.44772 0 8 0C8.55228 0 9 0.447723 9 1V3H24V1C24 0.447723 24.4477 0 25 0C25.5523 0 26 0.447723 26 1V3H29C31.2091 3 33 4.79086 33 7V31C33 33.2092 31.2091 35 29 35H4C1.79086 35 0 33.2092 0 31V7C0 4.79086 1.79086 3 4 3H7V1ZM4 5H29C30.1046 5 31 5.89542 31 7V31C31 32.1046 30.1046 33 29 33H4C2.89543 33 2 32.1046 2 31V13H24V11H2V7C2 5.89542 2.89543 5 4 5ZM15 17C15 16.4477 15.4477 16 16 16H18C18.5523 16 19 16.4477 19 17V19C19 19.5523 18.5523 20 18 20H16C15.4477 20 15 19.5523 15 19V17ZM8 16C7.44772 16 7 16.4477 7 17V19C7 19.5523 7.44772 20 8 20H10C10.5523 20 11 19.5523 11 19V17C11 16.4477 10.5523 16 10 16H8Z" fill="#2EADE2"/>
<rect x="24" y="10" width="28" height="32" fill="white"/>
<path fill-rule="evenodd" clip-rule="evenodd" d="M45 14H29V37H45V14ZM29 12C27.8954 12 27 12.8954 27 14V16.0854C26.8436 16.0301 26.6753 16 26.5 16H25.5C24.6716 16 24 16.6716 24 17.5C24 18.3284 24.6716 19 25.5 19H26.5C26.6753 19 26.8436 18.9699 27 18.9146V24.0854C26.8436 24.0301 26.6753 24 26.5 24H25.5C24.6716 24 24 24.6716 24 25.5C24 26.3284 24.6716 27 25.5 27H26.5C26.6753 27 26.8436 26.9699 27 26.9146V37C27 38.1046 27.8954 39 29 39H45C46.1046 39 47 38.1046 47 37V14C47 12.8954 46.1046 12 45 12H29Z" fill="#BE7775"/>
</svg>
