<svg width="37" height="37" viewBox="0 0 37 37" fill="none" xmlns="http://www.w3.org/2000/svg">
<path fill-rule="evenodd" clip-rule="evenodd" d="M9.75 1.5C8.50736 1.5 7.5 2.50736 7.5 3.75V29.75C7.5 30.5942 7.22104 31.3733 6.75027 32H25.75C26.9926 32 28 30.9926 28 29.75V3.75C28 2.50736 26.9926 1.5 25.75 1.5H9.75ZM3.75 33.5C1.67893 33.5 0 31.8211 0 29.75V19.75C0 17.6789 1.67893 16 3.75 16H6V3.75C6 1.67893 7.67893 0 9.75 0H25.75C27.8211 0 29.5 1.67893 29.5 3.75V29.75C29.5 31.8211 27.8211 33.5 25.75 33.5H3.75ZM6 17.5H3.75C2.50736 17.5 1.5 18.5074 1.5 19.75V29.75C1.5 30.9926 2.50736 32 3.75 32C4.99264 32 6 30.9926 6 29.75V17.5ZM11.75 5.25H23.75V7.25H11.75V5.25ZM18.75 9.25H11.75V11.25H18.75V9.25Z" fill="#2EADE2"/>
<path d="M25.75 20.7501C27.75 17.25 34.75 17.75 34.75 23.7501C34.75 24.75 33.75 28.7501 25.75 34.7501" stroke="white" stroke-width="4" stroke-linecap="round" stroke-linejoin="round"/>
<path d="M25.75 20.75C23.75 17.2499 16.75 17.75 16.75 23.7501C16.75 24.75 17.75 28.7501 25.75 34.7501" stroke="white" stroke-width="4" stroke-linecap="round" stroke-linejoin="round"/>
<path d="M25.75 20.7501C27.75 17.25 34.75 17.75 34.75 23.7501C34.75 24.75 33.75 28.7501 25.75 34.7501" stroke="#BE7775" stroke-width="2" stroke-linecap="round" stroke-linejoin="round"/>
<path d="M25.75 20.75C23.75 17.2499 16.75 17.75 16.75 23.7501C16.75 24.75 17.75 28.7501 25.75 34.7501" stroke="#BE7775" stroke-width="2" stroke-linecap="round" stroke-linejoin="round"/>
</svg>
