<svg width="49" height="37" viewBox="0 0 49 37" fill="none" xmlns="http://www.w3.org/2000/svg">
<path d="M1 22V2C1 1.44772 1.44772 1 2 1H32.5C33.0523 1 33.5 1.44772 33.5 2V22C33.5 22.5523 33.0523 23 32.5 23H14.5884C14.2252 23 13.8959 23.1995 13.6896 23.4984C12.2782 25.5426 9.419 27.2153 6.90426 28.2776C5.93952 28.6851 5.22004 27.4038 5.7871 26.5233C6.46896 25.4646 6.89085 24.4331 7.01014 23.713C7.08048 23.2884 6.70967 23 6.27924 23H2C1.44772 23 1 22.5523 1 22Z" stroke="#2EADE2" stroke-width="2"/>
<line x1="9" y1="9" x2="27" y2="9" stroke="#2EADE2" stroke-width="2" stroke-linecap="round" stroke-linejoin="round"/>
<line x1="9" y1="16" x2="22" y2="16" stroke="#2EADE2" stroke-width="2" stroke-linecap="round" stroke-linejoin="round"/>
<line x1="33" y1="33" x2="42" y2="33" stroke="#BE7775" stroke-width="2" stroke-linecap="round" stroke-linejoin="round"/>
<circle cx="37.5" cy="17.5" r="11.5" fill="white"/>
<mask id="path-6-inside-1" fill="white">
<path fill-rule="evenodd" clip-rule="evenodd" d="M43 25.2469C45.4208 23.5251 47 20.697 47 17.5C47 12.2533 42.7467 8 37.5 8C32.2533 8 28 12.2533 28 17.5C28 20.697 29.5792 23.5251 32 25.2469V30C32 30.5523 32.4477 31 33 31H42C42.5523 31 43 30.5523 43 30V25.2469Z"/>
</mask>
<path fill-rule="evenodd" clip-rule="evenodd" d="M43 25.2469C45.4208 23.5251 47 20.697 47 17.5C47 12.2533 42.7467 8 37.5 8C32.2533 8 28 12.2533 28 17.5C28 20.697 29.5792 23.5251 32 25.2469V30C32 30.5523 32.4477 31 33 31H42C42.5523 31 43 30.5523 43 30V25.2469Z" fill="white"/>
<path d="M43 25.2469L41.8408 23.6171C41.3133 23.9923 41 24.5996 41 25.2469H43ZM32 25.2469H34C34 24.5996 33.6867 23.9923 33.1592 23.6171L32 25.2469ZM45 17.5C45 20.0223 43.7568 22.2544 41.8408 23.6171L44.1592 26.8767C47.0849 24.7958 49 21.3716 49 17.5H45ZM37.5 10C41.6421 10 45 13.3579 45 17.5H49C49 11.1487 43.8513 6 37.5 6V10ZM30 17.5C30 13.3579 33.3579 10 37.5 10V6C31.1487 6 26 11.1487 26 17.5H30ZM33.1592 23.6171C31.2432 22.2544 30 20.0223 30 17.5H26C26 21.3716 27.9151 24.7958 30.8408 26.8767L33.1592 23.6171ZM34 30V25.2469H30V30H34ZM33 29C33.5523 29 34 29.4477 34 30H30C30 31.6569 31.3431 33 33 33V29ZM42 29H33V33H42V29ZM41 30C41 29.4477 41.4477 29 42 29V33C43.6569 33 45 31.6569 45 30H41ZM41 25.2469V30H45V25.2469H41Z" fill="#BE7775" mask="url(#path-6-inside-1)"/>
<path fill-rule="evenodd" clip-rule="evenodd" d="M35 35C35.2316 36.1411 36.2405 37 37.45 37C38.6595 37 39.6683 36.1411 39.9 35H35Z" fill="#BE7775"/>
</svg>
