<svg width="365" height="453" viewBox="0 0 365 453" fill="none" xmlns="http://www.w3.org/2000/svg">
<path fill-rule="evenodd" clip-rule="evenodd" d="M53.999 24H40C28.9543 24 20 32.9543 20 44V333C20 344.046 28.9543 353 40 353H182C193.046 353 202 344.046 202 333V44C202 32.9543 193.046 24 182 24H167.001C164.264 27.6433 159.907 30 155 30H135C126.716 30 120 23.2843 120 15C120 6.71573 126.716 0 135 0H155C158.938 0 162.522 1.51764 165.198 4H182C204.091 4 222 21.9086 222 44V333C222 355.091 204.091 373 182 373H129V398H122V413C122 424.046 130.954 433 142 433H271.5C282.546 433 291.5 424.046 291.5 413V246.129C261.704 241.13 239 215.216 239 184C239 149.206 267.206 121 302 121C336.794 121 365 149.206 365 184C365 215.565 341.787 241.708 311.5 246.288V413C311.5 435.091 293.591 453 271.5 453H142C119.909 453 102 435.091 102 413V398H95V373H40C17.9087 373 0 355.091 0 333V44C0 21.9086 17.9087 4 40 4H55.802C58.4783 1.51764 62.0618 0 66 0H86C94.2842 0 101 6.71573 101 15C101 23.2843 94.2842 30 86 30H66C61.0925 30 56.7356 27.6433 53.999 24ZM57 46C47.0588 46 39 54.0589 39 64V279C39 288.941 47.0588 297 57 297H166C175.941 297 184 288.941 184 279V64C184 54.0589 175.941 46 166 46H57ZM129 326C129 335.389 121.389 343 112 343C102.611 343 95 335.389 95 326C95 316.611 102.611 309 112 309C121.389 309 129 316.611 129 326ZM302 222C322.987 222 340 204.987 340 184C340 163.013 322.987 146 302 146C281.013 146 264 163.013 264 184C264 204.987 281.013 222 302 222ZM302.5 207C314.927 207 325 196.926 325 184.5C325 172.074 314.927 162 302.5 162C290.073 162 280 172.074 280 184.5C280 196.926 290.073 207 302.5 207Z" fill="white"/>
</svg>
